{"glyphs":{"0":{"ha":729,"x_min":44,"x_max":686,"o":"m 493 864 q 492 868 493 867 q 489 885 492 871 q 472 911 483 904 q 463 916 469 914 q 440 918 456 918 l 290 918 l 288 918 q 280 917 285 917 q 271 914 275 917 q 244 899 251 908 q 240 888 242 894 q 238 865 238 881 l 238 -29 l 238 -33 q 242 -50 238 -40 q 257 -76 246 -68 q 267 -81 260 -79 q 290 -83 274 -83 l 439 -83 l 443 -83 q 450 -82 446 -82 q 460 -79 454 -82 q 486 -64 479 -72 q 491 -53 489 -60 q 493 -31 493 -46 l 493 864 m 657 983 q 682 905 679 938 q 686 865 685 872 l 686 -31 q 676 -107 686 -71 q 646 -171 665 -143 q 603 -217 626 -199 q 557 -247 581 -236 q 515 -265 535 -258 q 478 -274 494 -271 q 453 -276 463 -276 q 440 -276 443 -276 l 290 -276 l 289 -276 q 213 -266 249 -276 q 150 -237 178 -256 q 103 -194 122 -218 q 74 -149 85 -171 q 47 -70 50 -103 q 44 -31 44 -37 q 44 222 44 108 q 44 424 44 335 q 44 581 44 514 q 44 697 44 649 l 44 865 q 83 1006 44 947 q 126 1052 103 1033 q 172 1082 149 1071 q 251 1108 218 1106 q 290 1111 283 1111 l 440 1111 q 579 1072 521 1111 q 626 1029 607 1053 q 657 983 646 1006 z "},"1":{"ha":729,"x_min":213,"x_max":518,"o":"m 518 1111 l 518 -276 l 331 -276 l 331 688 l 213 806 l 518 1111 z "},"2":{"ha":729,"x_min":44,"x_max":686,"o":"m 686 -31 q 676 -107 686 -71 q 646 -171 665 -143 q 603 -217 626 -199 q 557 -247 581 -236 q 515 -265 535 -258 q 478 -274 494 -271 q 453 -276 463 -276 q 440 -276 443 -276 l 44 -276 l 44 -181 q 60 -18 44 -97 q 103 137 76 61 q 163 284 129 213 q 235 421 197 356 q 308 547 271 486 q 378 659 346 607 q 438 754 411 711 q 478 828 464 797 q 488 853 485 843 q 493 865 492 863 q 490 888 492 881 q 486 897 489 894 q 474 908 482 903 q 455 915 467 913 q 439 918 443 918 l 438 918 l 290 918 l 288 918 q 280 917 285 917 q 271 914 275 917 q 244 899 249 907 q 240 888 242 894 q 238 865 238 881 l 44 865 q 83 1006 44 947 q 126 1052 103 1033 q 172 1082 149 1071 q 251 1108 218 1106 q 290 1111 283 1111 l 440 1111 q 465 1110 444 1111 q 514 1099 485 1108 q 581 1069 544 1090 q 646 1006 617 1049 q 676 942 665 978 q 686 865 686 906 q 677 808 685 833 q 658 757 669 782 q 633 705 647 731 q 601 651 618 679 q 529 535 569 597 q 447 404 489 474 q 321 165 378 290 q 244 -83 264 39 l 439 -83 l 442 -83 q 449 -82 444 -82 q 460 -79 454 -82 q 486 -64 479 -72 q 490 -53 488 -60 q 493 -31 492 -46 l 686 -31 z "},"3":{"ha":729,"x_min":14,"x_max":715,"o":"m 617 706 q 656 567 656 647 l 656 -31 q 654 -55 656 -35 q 644 -106 653 -75 q 614 -172 635 -135 q 550 -237 593 -208 q 411 -276 492 -276 l 410 -276 l 260 -276 q 235 -275 256 -276 q 185 -264 215 -274 q 119 -235 156 -256 q 54 -171 82 -214 q 24 -107 35 -143 q 14 -31 14 -71 l 207 -31 q 209 -53 207 -46 q 214 -62 211 -60 q 226 -74 218 -68 q 245 -81 233 -79 q 261 -83 257 -83 l 410 -83 q 432 -81 425 -83 q 442 -76 439 -79 q 453 -65 447 -72 q 460 -45 458 -57 q 463 -29 463 -33 l 463 567 q 460 588 463 582 q 456 599 458 594 q 444 610 454 603 q 424 617 436 614 q 410 619 413 619 l 408 619 l 254 619 l 403 918 l 260 918 q 238 916 244 918 q 228 911 232 914 q 217 899 222 907 q 210 881 213 892 q 207 865 208 869 l 207 864 l 163 865 l 14 865 q 15 890 14 869 q 26 940 17 910 q 56 1006 35 969 q 121 1071 78 1043 q 260 1111 178 1111 l 560 1111 l 715 1111 l 546 774 q 583 746 565 763 q 617 706 601 729 z "},"4":{"ha":729,"x_min":21,"x_max":710,"o":"m 538 106 q 603 76 567 97 q 669 11 640 54 q 708 -126 708 -44 l 708 -276 l 515 -276 l 515 -126 q 513 -105 515 -111 q 508 -94 511 -99 q 497 -83 507 -90 q 478 -77 489 -79 q 463 -74 467 -75 l 21 -74 l 501 1111 l 710 1111 l 307 118 l 463 118 q 487 117 467 118 q 538 106 507 115 z "},"5":{"ha":729,"x_min":44,"x_max":686,"o":"m 657 685 q 682 606 679 639 q 686 567 685 572 q 686 533 686 567 q 686 444 686 499 q 686 324 686 390 q 686 190 686 257 q 686 65 686 124 q 686 -31 686 7 q 676 -107 686 -71 q 646 -171 665 -143 q 603 -217 626 -199 q 557 -247 581 -236 q 515 -265 535 -258 q 478 -274 494 -271 q 453 -276 463 -276 q 440 -276 443 -276 l 290 -276 l 289 -276 q 213 -266 249 -276 q 150 -237 178 -256 q 103 -194 122 -218 q 74 -149 85 -171 q 47 -70 50 -103 q 44 -31 44 -37 l 213 -31 l 238 -29 l 238 -33 q 240 -50 238 -36 q 257 -76 246 -68 q 267 -81 260 -79 q 290 -83 274 -83 l 439 -83 l 442 -83 q 449 -82 444 -82 q 460 -79 454 -82 q 485 -64 481 -72 q 490 -53 488 -60 q 493 -31 493 -46 l 493 565 l 493 567 q 492 569 493 567 q 489 586 492 572 q 472 613 483 606 q 463 617 469 615 q 440 619 456 619 l 290 619 q 266 621 286 619 q 215 631 246 622 q 149 661 186 640 q 83 725 113 682 q 44 865 44 783 l 44 1015 l 44 1111 l 440 1111 l 589 1111 l 589 918 l 440 918 l 238 918 l 238 865 q 240 843 238 850 q 243 833 242 836 q 256 822 246 829 q 276 815 264 817 q 290 813 288 813 l 440 813 q 516 802 481 813 q 579 772 551 792 q 626 730 607 753 q 657 685 646 707 z "},"6":{"ha":729,"x_min":44,"x_max":686,"o":"m 486 -64 q 490 -53 488 -60 q 493 -31 493 -46 q 491 -9 493 -15 q 486 0 489 -3 q 474 11 482 6 q 455 19 467 17 q 439 21 443 21 l 438 21 l 290 21 q 272 22 286 21 q 238 28 258 22 l 238 -31 q 240 -53 238 -46 q 243 -62 242 -60 q 256 -74 246 -67 q 275 -81 264 -78 q 290 -83 286 -83 l 439 -83 l 442 -83 q 449 -82 444 -82 q 460 -79 454 -82 q 486 -64 479 -72 m 515 203 q 581 172 544 193 q 646 108 617 151 q 676 44 665 81 q 686 -31 686 8 q 676 -107 686 -71 q 646 -171 665 -143 q 603 -217 626 -199 q 557 -247 581 -236 q 478 -274 513 -271 q 439 -276 444 -276 l 290 -276 q 265 -275 285 -276 q 215 -264 246 -274 q 149 -235 186 -256 q 83 -171 113 -214 q 44 -31 44 -112 l 44 174 l 44 263 l 44 267 l 44 865 q 46 890 44 869 q 56 940 47 910 q 86 1006 65 969 q 150 1072 107 1043 q 290 1111 208 1111 l 439 1111 q 465 1110 444 1111 q 515 1099 485 1108 q 581 1069 544 1090 q 646 1006 617 1049 q 676 942 665 978 q 686 865 686 906 l 493 865 q 491 888 493 881 q 486 897 489 894 q 474 908 482 903 q 455 916 467 914 q 439 918 443 918 l 290 918 q 268 916 275 918 q 258 911 261 914 q 247 899 253 907 q 240 880 242 892 q 238 865 238 868 l 238 864 l 238 267 q 240 244 238 251 q 243 235 242 238 q 256 224 246 231 q 276 217 264 219 q 290 214 288 214 l 439 214 q 465 213 444 214 q 515 203 485 211 z "},"7":{"ha":729,"x_min":24,"x_max":706,"o":"m 706 1111 l 661 983 q 648 944 661 983 q 611 839 635 906 q 556 683 588 772 q 490 490 525 593 q 422 295 457 396 q 353 95 388 194 q 288 -99 319 -4 q 228 -276 256 -194 l 26 -276 l 24 -275 q 88 -86 53 -190 q 162 128 124 18 q 239 352 200 239 q 314 569 278 465 q 381 763 350 674 q 435 918 413 853 l 421 918 l 271 918 q 249 916 256 918 q 239 911 242 914 q 228 899 233 907 q 221 881 224 892 q 218 865 218 869 l 218 864 l 172 865 l 25 865 q 26 890 25 869 q 38 940 28 910 q 67 1006 46 969 q 131 1071 88 1043 q 194 1101 158 1090 q 271 1111 231 1111 l 421 1111 l 706 1111 z "},"8":{"ha":729,"x_min":43,"x_max":686,"o":"m 493 565 l 493 567 q 492 569 493 567 q 489 586 492 572 q 472 613 483 606 q 463 617 469 615 q 440 619 456 619 l 382 619 l 292 619 l 288 619 q 280 617 285 618 q 271 615 275 617 q 244 599 251 610 q 240 589 242 596 q 238 567 238 582 l 238 -29 l 238 -33 q 240 -50 238 -36 q 257 -76 246 -68 q 267 -81 260 -79 q 290 -83 274 -83 l 439 -83 l 443 -83 q 450 -82 446 -82 q 460 -79 454 -82 q 486 -64 479 -72 q 491 -53 489 -60 q 493 -31 493 -46 l 493 565 m 244 899 q 240 888 242 894 q 238 865 238 881 q 240 843 238 850 q 243 833 242 836 q 256 822 246 829 q 276 815 264 817 q 290 813 288 813 l 439 813 l 443 813 q 460 817 449 813 q 486 832 478 821 q 490 842 489 835 q 493 864 492 849 q 492 868 493 867 q 489 885 492 871 q 472 911 483 904 q 463 916 469 914 q 440 918 456 918 l 292 918 l 288 918 q 271 914 279 918 q 244 899 251 908 m 686 -31 q 676 -107 686 -71 q 646 -171 665 -143 q 603 -217 626 -199 q 557 -247 581 -236 q 515 -265 535 -258 q 478 -274 494 -271 q 453 -276 463 -276 q 440 -276 443 -276 l 290 -276 l 289 -276 q 150 -237 208 -276 q 103 -194 122 -218 q 74 -149 85 -171 q 47 -70 50 -103 q 44 -31 44 -37 q 44 251 43 138 q 44 436 44 365 l 44 567 q 83 706 44 647 q 88 710 86 708 q 90 715 89 713 q 83 725 89 719 q 44 865 44 783 q 83 1006 44 947 q 126 1052 103 1033 q 172 1082 149 1071 q 251 1108 218 1106 q 290 1111 283 1111 l 440 1111 q 579 1072 521 1111 q 626 1029 607 1053 q 657 983 646 1006 q 683 905 679 938 q 686 865 686 872 q 676 789 686 825 q 646 725 665 753 q 642 720 643 722 q 639 715 642 718 q 649 699 644 707 q 657 685 653 692 q 682 606 679 639 q 686 567 685 572 l 686 -31 z "},"9":{"ha":729,"x_min":44,"x_max":686,"o":"m 493 865 q 491 888 493 881 q 486 897 489 894 q 474 908 482 903 q 453 916 465 914 q 439 918 442 918 l 438 918 l 292 918 l 288 918 q 280 917 285 917 q 271 914 275 917 q 244 899 249 907 q 240 888 242 894 q 238 865 238 881 q 239 843 238 850 q 243 833 240 836 q 256 822 246 829 q 275 815 264 817 q 290 813 286 813 l 292 813 l 439 813 q 457 812 443 813 q 493 806 471 811 l 493 865 m 646 1006 q 676 942 665 978 q 686 865 686 906 q 686 764 686 814 q 686 673 686 714 q 686 604 686 632 q 686 568 686 576 l 686 567 l 686 -31 q 684 -55 686 -35 q 674 -106 682 -75 q 644 -172 665 -135 q 579 -237 622 -208 q 440 -276 521 -276 l 439 -276 l 290 -276 q 265 -275 285 -276 q 215 -264 244 -274 q 149 -235 186 -256 q 83 -171 113 -214 q 44 -31 44 -112 l 238 -31 q 239 -53 238 -46 q 243 -62 240 -60 q 256 -74 246 -67 q 276 -81 264 -79 q 290 -83 288 -83 l 439 -83 q 461 -81 454 -83 q 471 -76 468 -79 q 482 -65 478 -72 q 490 -45 488 -57 q 493 -31 493 -33 l 493 567 q 491 588 493 582 q 486 599 489 594 q 474 610 483 601 q 453 617 465 614 q 439 619 442 619 l 438 619 l 290 619 q 265 621 285 619 q 215 631 244 622 q 149 661 186 640 q 83 725 113 682 q 44 865 44 783 q 83 1006 44 947 q 126 1052 103 1033 q 172 1082 149 1071 q 251 1108 218 1106 q 290 1111 283 1111 l 439 1111 q 465 1110 444 1111 q 514 1099 485 1108 q 581 1069 544 1090 q 646 1006 617 1049 z "},"\u0000":{"ha":0,"x_min":0,"x_max":0,"o":""},"\r":{"ha":347,"x_min":0,"x_max":0,"o":""}," ":{"ha":347,"x_min":0,"x_max":0,"o":""},"A":{"ha":683,"x_min":0,"x_max":642,"o":"m 442 832 q 447 842 444 835 q 449 864 449 849 l 449 918 l 246 918 q 224 916 231 918 q 214 911 217 914 q 203 900 208 907 q 195 880 197 892 q 193 865 193 868 l 193 864 l 193 807 q 246 813 215 813 l 394 813 l 399 813 q 415 817 404 813 q 442 832 433 821 m 449 -276 l 449 625 q 413 620 426 621 q 396 619 399 619 l 246 619 q 224 617 231 619 q 214 613 217 615 q 203 600 208 608 q 195 582 197 593 q 193 567 193 571 l 193 -276 l 0 -276 l 0 567 l 0 865 q 1 890 0 869 q 13 940 3 910 q 42 1006 21 969 q 106 1072 63 1043 q 246 1111 164 1111 l 642 1111 l 642 865 l 642 864 l 642 -276 l 449 -276 z "},"B":{"ha":672,"x_min":0,"x_max":642,"o":"m 449 565 l 449 569 q 447 576 447 572 q 444 586 447 581 q 428 613 438 607 q 418 617 425 615 q 396 619 411 619 q 193 647 276 619 l 193 -83 l 394 -83 l 399 -83 q 415 -79 404 -83 q 442 -64 435 -74 q 447 -53 444 -60 q 449 -31 449 -46 l 449 565 m 193 872 q 196 867 194 869 q 203 858 197 864 q 232 839 210 851 q 303 819 254 826 q 299 865 299 840 q 297 888 299 881 q 293 897 294 894 q 281 908 290 900 q 260 916 272 914 q 246 918 249 918 l 244 918 l 193 918 l 193 872 m 604 704 q 631 642 621 676 q 642 567 642 607 l 642 -31 q 631 -107 642 -71 q 601 -171 621 -143 q 559 -217 582 -199 q 514 -247 536 -236 q 435 -274 468 -271 q 396 -276 403 -276 l 0 -276 l 0 863 l 0 865 l 0 1111 l 246 1111 q 271 1110 251 1111 q 321 1099 290 1108 q 387 1069 350 1090 q 453 1006 424 1049 q 492 865 492 947 q 497 833 493 842 q 515 808 501 825 q 553 769 528 792 q 604 704 579 746 z "},"C":{"ha":642,"x_min":0,"x_max":642,"o":"m 442 -64 q 447 -53 444 -60 q 449 -31 449 -46 l 642 -31 q 631 -107 642 -71 q 601 -171 621 -143 q 559 -217 582 -199 q 514 -247 536 -236 q 435 -274 468 -271 q 396 -276 403 -276 l 246 -276 l 244 -276 q 169 -266 204 -276 q 106 -236 133 -256 q 59 -194 78 -217 q 29 -149 40 -171 q 3 -70 7 -103 q 0 -31 0 -37 l 0 865 q 39 1006 0 947 q 82 1052 58 1033 q 128 1082 106 1071 q 206 1108 174 1106 q 246 1111 239 1111 l 396 1111 q 535 1072 476 1111 q 583 1029 564 1053 q 613 983 601 1006 q 638 905 635 938 q 642 865 640 872 l 474 865 l 449 864 l 449 868 q 447 875 447 871 q 444 885 447 879 q 428 911 439 904 q 418 916 425 914 q 396 918 411 918 l 247 918 l 243 918 q 236 917 240 917 q 226 914 232 917 q 200 899 207 908 q 195 888 197 894 q 193 865 193 881 l 193 -29 l 193 -33 q 194 -40 194 -36 q 197 -50 194 -44 q 213 -76 203 -69 q 224 -81 217 -79 q 246 -83 231 -83 l 394 -83 l 399 -83 q 406 -82 401 -82 q 415 -79 410 -82 q 442 -64 435 -74 z "},"D":{"ha":681,"x_min":0,"x_max":642,"o":"m 449 864 l 449 868 q 447 875 447 871 q 444 885 447 879 q 428 911 439 904 q 418 916 425 914 q 396 918 411 918 l 193 918 l 193 -83 l 394 -83 l 399 -83 q 415 -79 404 -83 q 442 -64 435 -74 q 447 -53 444 -60 q 449 -31 449 -46 l 449 472 l 449 864 m 613 983 q 638 905 635 938 q 642 865 642 872 l 642 -31 q 631 -107 642 -71 q 601 -171 621 -143 q 559 -217 582 -199 q 514 -247 536 -236 q 435 -274 468 -271 q 396 -276 403 -276 l 0 -276 l 0 1015 l 0 1111 l 96 1111 l 396 1111 q 535 1072 476 1111 q 583 1029 564 1053 q 613 983 601 1006 z "},"E":{"ha":642,"x_min":0,"x_max":642,"o":"m 642 -31 q 631 -107 642 -71 q 601 -171 621 -143 q 559 -217 582 -199 q 514 -247 536 -236 q 435 -274 468 -271 q 396 -276 403 -276 l 246 -276 l 244 -276 q 169 -266 204 -276 q 106 -236 133 -256 q 59 -194 78 -217 q 29 -149 40 -171 q 3 -70 7 -103 q 0 -31 0 -37 l 0 1111 l 544 1111 l 544 918 l 193 918 l 193 807 q 246 813 215 813 l 396 813 l 396 619 l 246 619 q 224 617 231 619 q 214 613 217 615 q 203 600 208 608 q 196 582 199 593 q 193 567 193 571 l 193 565 l 193 -29 l 193 -33 q 194 -40 194 -36 q 197 -50 194 -44 q 213 -76 203 -69 q 224 -81 217 -79 q 246 -83 231 -83 l 394 -83 l 399 -83 q 406 -82 401 -82 q 415 -79 410 -82 q 442 -64 435 -74 q 447 -53 444 -60 q 449 -31 449 -46 l 642 -31 z "},"F":{"ha":544,"x_min":0,"x_max":544,"o":"m 200 899 q 195 888 197 894 q 193 865 193 881 l 193 807 q 246 813 215 813 l 396 813 l 396 619 l 246 619 q 224 617 231 619 q 214 613 217 615 q 203 600 208 608 q 196 582 199 593 q 193 567 193 571 l 193 -276 l 0 -276 l 0 567 l 0 865 q 10 942 0 906 q 40 1006 21 978 q 83 1052 60 1033 q 128 1082 106 1071 q 206 1108 174 1106 q 246 1111 239 1111 l 544 1111 l 544 918 l 247 918 l 243 918 q 226 914 236 918 q 200 899 207 908 z "},"G":{"ha":674,"x_min":0,"x_max":642,"o":"m 642 813 l 642 715 l 642 -31 q 631 -107 642 -71 q 601 -171 621 -143 q 559 -217 582 -199 q 514 -247 536 -236 q 435 -274 468 -271 q 396 -276 403 -276 l 0 -276 l 0 -181 l 0 865 q 10 942 0 906 q 40 1006 21 978 q 83 1052 60 1033 q 128 1082 106 1071 q 206 1108 174 1106 q 246 1111 239 1111 l 544 1111 l 544 918 l 247 918 l 243 918 q 236 917 240 917 q 226 914 232 917 q 200 899 207 908 q 195 888 197 894 q 193 865 193 881 l 193 -83 l 394 -83 l 399 -83 q 406 -82 401 -82 q 415 -79 410 -82 q 442 -64 435 -74 q 447 -53 444 -60 q 449 -31 449 -46 l 449 619 l 246 619 l 246 813 l 642 813 z "},"H":{"ha":683,"x_min":0,"x_max":642,"o":"m 642 1111 l 642 -276 l 449 -276 l 449 625 q 413 620 426 621 q 396 619 399 619 l 246 619 q 224 617 231 619 q 214 613 217 615 q 203 600 208 608 q 195 582 197 593 q 193 567 193 571 l 193 -276 l 0 -276 l 0 567 l 0 568 l 0 1111 l 193 1111 l 193 807 q 246 813 215 813 l 394 813 l 399 813 q 415 817 404 813 q 442 832 433 821 q 447 842 444 835 q 449 865 449 849 l 449 1111 l 642 1111 z "},"I":{"ha":235,"x_min":0,"x_max":193,"o":"m 193 1111 l 193 -276 l 0 -276 l 0 1111 l 193 1111 z "},"J":{"ha":683,"x_min":0,"x_max":642,"o":"m 642 1111 l 642 -276 l 396 -276 l 246 -276 l 244 -276 q 169 -266 204 -276 q 106 -237 133 -256 q 59 -194 78 -218 q 29 -149 40 -171 q 3 -70 7 -103 q 0 -31 0 -37 l 168 -31 l 193 -29 l 193 -33 q 194 -40 194 -36 q 197 -50 194 -44 q 213 -76 203 -69 q 224 -81 217 -79 q 246 -83 231 -83 l 396 -83 l 449 -83 l 449 1111 l 642 1111 z "},"K":{"ha":585,"x_min":0,"x_max":544,"o":"m 536 -82 q 538 -83 536 -83 l 544 -83 l 544 -276 l 543 -276 q 478 -267 510 -276 q 424 -239 447 -257 q 384 -201 400 -222 q 360 -161 368 -181 q 338 -94 340 -121 q 336 -60 336 -67 l 336 536 q 335 541 336 539 q 335 546 335 543 q 329 558 332 556 l 326 558 q 324 559 325 558 q 321 560 324 560 l 210 560 q 207 559 208 560 q 203 558 206 558 q 199 557 200 558 l 196 554 q 194 551 194 554 q 193 538 193 549 l 193 -276 l 0 -276 l 0 1111 l 193 1111 l 193 751 q 202 753 199 753 q 208 753 206 753 l 321 753 l 329 753 q 335 769 333 760 q 336 776 336 772 l 336 894 q 338 917 336 900 q 346 958 339 933 q 370 1015 353 983 q 424 1075 388 1047 q 480 1101 449 1092 q 544 1111 511 1111 l 544 918 q 536 917 536 918 q 531 901 533 914 q 529 894 529 899 l 529 775 q 528 754 529 771 q 519 711 526 738 q 511 685 517 700 q 496 656 506 671 q 501 647 499 651 q 506 638 503 642 q 526 570 524 597 q 529 536 529 543 l 529 -60 q 530 -64 529 -61 q 531 -69 531 -67 q 536 -82 533 -79 z "},"L":{"ha":642,"x_min":0,"x_max":642,"o":"m 642 -31 q 631 -107 642 -71 q 601 -171 621 -143 q 559 -217 582 -199 q 514 -247 536 -236 q 435 -274 468 -271 q 396 -276 403 -276 l 0 -276 l 0 1111 l 193 1111 l 193 -83 l 394 -83 l 399 -83 q 406 -82 401 -82 q 415 -79 410 -82 q 442 -64 435 -74 q 447 -53 444 -60 q 449 -31 449 -46 l 642 -31 z "},"M":{"ha":1132,"x_min":0,"x_max":1089,"o":"m 1089 1111 l 1089 -276 l 897 -276 l 897 918 l 794 918 l 790 918 l 778 918 q 757 916 768 917 q 732 913 746 915 q 681 898 706 907 q 649 881 656 889 q 642 873 642 874 q 642 865 642 872 l 642 -276 l 449 -276 l 449 865 q 447 873 447 872 q 443 879 447 874 q 401 901 432 890 q 336 915 369 913 q 297 918 303 918 l 296 918 l 193 918 l 193 -276 l 0 -276 l 0 1111 l 296 1111 q 325 1110 299 1111 q 392 1101 351 1108 q 465 1083 425 1094 q 544 1043 504 1071 q 593 1071 568 1060 q 642 1089 618 1082 q 746 1109 701 1107 q 794 1111 790 1111 l 1089 1111 z "},"N":{"ha":681,"x_min":0,"x_max":642,"o":"m 642 -276 l 449 -276 l 449 865 q 447 873 447 872 q 443 879 447 874 q 401 901 432 890 q 337 915 369 913 q 297 918 304 918 l 296 918 l 193 918 l 193 -276 l 0 -276 l 0 1111 l 296 1111 q 325 1110 299 1111 q 392 1101 351 1108 q 479 1078 432 1094 q 571 1024 526 1063 l 579 1015 l 642 1015 l 642 865 l 642 685 l 642 -276 z "},"O":{"ha":681,"x_min":0,"x_max":642,"o":"m 449 865 q 447 888 449 881 q 442 897 444 894 q 429 908 438 903 q 410 916 422 914 q 396 918 399 918 l 394 918 l 193 918 l 193 865 l 193 -29 l 193 -33 q 194 -40 194 -36 q 197 -50 194 -44 q 213 -76 203 -69 q 224 -81 217 -79 q 246 -83 231 -83 l 394 -83 l 399 -83 q 406 -82 401 -82 q 415 -79 410 -82 q 442 -64 435 -74 q 447 -53 444 -60 q 449 -31 449 -46 l 449 472 l 449 865 m 642 -31 q 631 -107 642 -71 q 601 -171 621 -143 q 559 -217 582 -199 q 514 -247 536 -236 q 435 -274 468 -271 q 396 -276 403 -276 l 246 -276 l 244 -276 q 169 -266 204 -276 q 106 -236 133 -256 q 59 -194 78 -217 q 29 -149 40 -171 q 3 -70 7 -103 q 0 -31 0 -37 l 0 865 l 0 1015 l 0 1111 l 396 1111 q 420 1110 400 1111 q 471 1099 440 1108 q 537 1069 500 1090 q 601 1006 574 1049 q 631 942 621 978 q 642 865 642 906 l 642 -31 z "},"P":{"ha":642,"x_min":0,"x_max":642,"o":"m 449 865 q 447 888 449 881 q 442 897 444 894 q 429 908 438 903 q 410 916 422 914 q 394 918 397 918 l 193 918 l 193 813 l 449 813 l 449 865 m 601 1006 q 631 942 621 978 q 642 865 642 906 l 642 715 l 642 619 l 193 619 l 193 -276 l 0 -276 l 0 1111 l 396 1111 q 420 1110 400 1111 q 471 1099 440 1108 q 537 1069 500 1090 q 601 1006 574 1049 z "},"Q":{"ha":679,"x_min":0,"x_max":642,"o":"m 449 8 l 449 865 q 447 888 449 881 q 442 897 444 894 q 429 908 438 903 q 411 915 422 913 q 396 918 400 918 l 246 918 q 224 916 231 918 q 214 911 217 914 q 203 899 208 907 q 196 881 199 892 q 193 865 193 869 l 193 864 l 193 -31 q 195 -53 193 -46 q 200 -62 197 -60 q 213 -74 204 -68 q 231 -81 219 -78 q 246 -83 242 -83 l 304 -83 q 300 -58 301 -71 q 299 -31 299 -44 l 408 -31 l 449 8 m 601 1006 q 631 942 621 978 q 642 865 642 906 l 642 -31 l 642 -71 l 544 -167 l 544 -276 q 520 -275 540 -276 q 469 -264 500 -274 q 462 -262 467 -262 q 453 -258 457 -261 l 436 -276 l 396 -276 l 246 -276 q 222 -275 242 -276 q 171 -264 201 -274 q 105 -235 142 -256 q 40 -171 68 -214 q 10 -107 21 -143 q 0 -31 0 -71 l 0 472 l 0 865 q 1 890 0 869 q 13 940 3 910 q 42 1006 21 969 q 106 1072 63 1043 q 246 1111 164 1111 l 396 1111 q 420 1110 400 1111 q 471 1099 440 1108 q 537 1069 500 1090 q 601 1006 574 1049 z "},"R":{"ha":674,"x_min":0,"x_max":642,"o":"m 201 858 q 231 839 208 851 q 303 819 254 826 q 299 865 299 840 q 297 888 299 881 q 292 897 294 894 q 281 908 290 901 q 260 916 272 914 q 246 918 249 918 l 244 918 l 193 918 l 193 872 q 201 858 193 868 m 642 -276 l 449 -276 l 449 565 l 449 569 q 444 586 446 575 q 428 613 439 606 q 418 617 425 615 q 396 619 411 619 q 193 647 276 619 l 193 -276 l 0 -276 l 0 1111 l 246 1111 q 270 1110 250 1111 q 321 1099 290 1108 q 387 1069 350 1090 q 453 1006 424 1049 q 481 942 472 978 q 492 865 490 906 q 497 833 492 842 q 515 808 501 825 q 553 769 528 792 q 604 704 579 746 q 631 642 621 676 q 642 567 642 607 l 642 -276 z "},"S":{"ha":650,"x_min":0,"x_max":642,"o":"m 615 79 q 634 26 626 51 q 642 -31 642 0 q 631 -107 642 -71 q 601 -171 621 -143 q 559 -217 582 -199 q 514 -247 536 -236 q 435 -274 468 -271 q 396 -276 403 -276 l 246 -276 l 244 -276 q 169 -266 204 -276 q 106 -236 133 -256 q 59 -194 78 -217 q 29 -149 40 -171 q 3 -70 7 -103 q 0 -31 0 -37 l 168 -31 l 193 -29 l 193 -33 q 194 -40 194 -36 q 197 -50 194 -44 q 213 -76 203 -69 q 224 -81 217 -79 q 246 -83 231 -83 l 394 -83 l 399 -83 q 406 -82 401 -82 q 415 -79 410 -82 q 442 -64 435 -74 q 447 -53 444 -60 q 449 -31 449 -46 q 448 -28 449 -29 q 447 -24 447 -26 q 439 0 444 -14 q 404 78 428 29 q 348 181 381 125 q 279 297 315 236 q 206 420 243 358 q 135 540 169 482 q 73 653 101 599 q 26 754 44 708 q 8 808 15 782 q 0 865 0 833 q 10 942 0 906 q 40 1006 21 978 q 83 1052 60 1033 q 128 1082 106 1071 q 206 1108 174 1106 q 246 1111 239 1111 l 396 1111 l 544 1111 l 544 918 l 396 918 l 247 918 l 243 918 q 236 917 240 917 q 226 914 232 917 q 200 899 207 908 q 195 888 197 894 q 193 865 193 881 q 194 858 193 861 q 197 848 196 854 q 201 835 199 842 q 238 756 215 800 q 294 653 261 708 q 363 536 326 597 q 435 413 399 475 q 506 293 472 351 q 569 180 540 235 q 615 79 597 125 z "},"T":{"ha":472,"x_min":0,"x_max":449,"o":"m 449 1111 l 449 918 l 321 918 l 321 -276 l 128 -276 l 128 918 l 0 918 l 0 1111 l 449 1111 z "},"U":{"ha":683,"x_min":0,"x_max":642,"o":"m 642 1111 l 642 596 l 642 -31 q 631 -107 642 -71 q 601 -171 621 -143 q 559 -217 582 -199 q 514 -247 536 -236 q 435 -274 468 -271 q 396 -276 403 -276 l 96 -276 l 0 -276 l 0 -31 l 0 1111 l 193 1111 l 193 -31 l 193 -83 l 394 -83 l 399 -83 q 406 -82 401 -82 q 415 -79 410 -82 q 442 -64 435 -74 q 447 -53 444 -60 q 449 -31 449 -46 l 449 1111 l 642 1111 z "},"V":{"ha":672,"x_min":0,"x_max":642,"o":"m 642 1111 l 642 156 q 632 96 642 124 q 607 46 622 68 q 574 6 592 24 q 538 -28 557 -11 q 453 -86 499 -60 q 364 -135 408 -112 q 277 -175 319 -157 q 201 -206 235 -193 q 148 -226 168 -219 q 128 -233 128 -233 l 0 -276 l 0 1111 l 193 1111 l 193 -1 q 298 47 243 18 q 393 104 353 75 q 432 138 418 122 q 449 158 446 153 l 449 1111 l 642 1111 z "},"W":{"ha":1133,"x_min":0,"x_max":1090,"o":"m 1090 1111 l 1090 -276 l 964 -233 q 928 -222 963 -233 q 844 -189 894 -210 q 732 -138 793 -168 q 615 -72 671 -108 q 578 -47 596 -60 q 546 -19 561 -35 l 538 -28 q 453 -86 499 -60 q 364 -135 408 -112 q 277 -175 319 -157 q 201 -206 235 -193 q 148 -226 168 -219 q 128 -233 128 -233 l 0 -276 l 0 1111 l 193 1111 l 193 -1 q 298 47 243 18 q 393 104 353 75 q 432 138 418 122 q 449 158 446 153 l 449 1076 l 449 1111 l 642 1111 l 642 1076 l 642 244 l 642 158 q 643 156 642 158 q 651 144 646 151 q 667 129 657 138 q 713 94 685 113 q 775 57 742 75 q 837 25 806 40 q 897 -1 868 10 l 897 1111 l 1090 1111 z "},"X":{"ha":683,"x_min":0,"x_max":642,"o":"m 601 803 q 631 739 621 775 q 642 663 642 703 l 642 -276 l 449 -276 l 449 663 q 447 685 449 678 q 442 694 444 692 q 429 706 436 703 q 411 713 422 711 q 396 715 400 715 l 322 715 l 247 715 l 243 715 q 226 713 240 715 q 200 696 208 707 q 195 686 197 693 q 193 663 193 679 l 193 -276 l 0 -276 l 0 663 q 39 803 0 744 q 43 808 42 806 q 47 814 44 811 q 37 828 42 821 q 29 844 32 836 q 3 922 7 889 q 0 961 0 956 l 0 1111 l 193 1111 l 193 963 l 193 958 q 197 942 193 951 q 213 915 204 922 q 224 910 217 913 q 246 908 231 908 l 396 908 q 418 910 411 908 q 428 915 425 913 q 439 928 433 919 q 445 947 443 935 q 449 961 447 958 l 449 964 l 449 1111 l 642 1111 l 642 961 q 640 937 642 957 q 629 886 639 917 q 616 851 624 871 q 594 813 608 832 q 597 808 596 810 q 601 803 599 806 z "},"Y":{"ha":651,"x_min":0,"x_max":640,"o":"m 640 1110 q 640 1088 640 1107 q 633 1042 640 1069 q 612 979 626 1014 q 561 913 597 944 q 503 877 538 890 q 432 865 469 864 l 431 865 l 431 864 q 426 856 428 861 q 419 832 421 846 q 417 813 417 818 l 417 811 l 417 -276 l 224 -276 l 224 811 l 224 817 q 223 824 224 819 q 221 836 222 829 q 215 854 218 846 q 210 865 213 863 l 208 865 q 137 877 171 864 q 79 913 103 890 q 42 958 56 935 q 19 1001 28 981 q 2 1075 4 1044 q 0 1110 0 1106 l 189 1110 l 193 1111 l 193 1106 q 196 1086 193 1100 q 201 1068 199 1076 q 207 1057 204 1060 l 208 1057 q 269 1049 240 1058 q 321 1024 297 1039 q 373 1049 344 1039 q 432 1057 401 1058 l 435 1057 l 435 1058 q 439 1067 436 1060 q 447 1092 444 1078 q 449 1110 449 1107 l 449 1111 l 478 1110 l 640 1110 z "},"Z":{"ha":738,"x_min":0,"x_max":726,"o":"m 485 -64 q 490 -53 488 -60 q 492 -31 492 -46 l 685 -31 q 674 -107 685 -71 q 644 -171 664 -143 q 602 -217 625 -199 q 556 -247 579 -236 q 513 -265 533 -258 q 477 -274 493 -271 q 451 -276 461 -276 q 439 -276 442 -276 l 0 -276 l 449 918 l 289 918 q 267 916 274 918 q 257 911 260 914 q 246 899 251 907 q 238 881 240 892 q 236 865 236 869 l 236 864 l 190 865 l 43 865 q 44 890 43 869 q 54 940 46 910 q 85 1006 64 969 q 149 1072 106 1043 q 289 1111 207 1111 l 588 1111 l 726 1111 l 278 -83 l 438 -83 l 442 -83 q 449 -82 444 -82 q 458 -79 453 -82 q 485 -64 478 -72 z "},"a":{"ha":683,"x_min":0,"x_max":642,"o":"m 442 832 q 447 842 444 835 q 449 864 449 849 l 449 918 l 246 918 q 224 916 231 918 q 214 911 217 914 q 203 900 208 907 q 195 880 197 892 q 193 865 193 868 l 193 864 l 193 807 q 246 813 215 813 l 394 813 l 399 813 q 415 817 404 813 q 442 832 433 821 m 449 -276 l 449 625 q 413 620 426 621 q 396 619 399 619 l 246 619 q 224 617 231 619 q 214 613 217 615 q 203 600 208 608 q 195 582 197 593 q 193 567 193 571 l 193 -276 l 0 -276 l 0 567 l 0 865 q 1 890 0 869 q 13 940 3 910 q 42 1006 21 969 q 106 1072 63 1043 q 246 1111 164 1111 l 642 1111 l 642 865 l 642 864 l 642 -276 l 449 -276 z "},"b":{"ha":672,"x_min":0,"x_max":642,"o":"m 449 565 l 449 569 q 447 576 447 572 q 444 586 447 581 q 428 613 438 607 q 418 617 425 615 q 396 619 411 619 q 193 647 276 619 l 193 -83 l 394 -83 l 399 -83 q 415 -79 404 -83 q 442 -64 435 -74 q 447 -53 444 -60 q 449 -31 449 -46 l 449 565 m 193 872 q 196 867 194 869 q 203 858 197 864 q 232 839 210 851 q 303 819 254 826 q 299 865 299 840 q 297 888 299 881 q 293 897 294 894 q 281 908 290 900 q 260 916 272 914 q 246 918 249 918 l 244 918 l 193 918 l 193 872 m 604 704 q 631 642 621 676 q 642 567 642 607 l 642 -31 q 631 -107 642 -71 q 601 -171 621 -143 q 559 -217 582 -199 q 514 -247 536 -236 q 435 -274 468 -271 q 396 -276 403 -276 l 0 -276 l 0 863 l 0 865 l 0 1111 l 246 1111 q 271 1110 251 1111 q 321 1099 290 1108 q 387 1069 350 1090 q 453 1006 424 1049 q 492 865 492 947 q 497 833 493 842 q 515 808 501 825 q 553 769 528 792 q 604 704 579 746 z "},"c":{"ha":642,"x_min":0,"x_max":642,"o":"m 442 -64 q 447 -53 444 -60 q 449 -31 449 -46 l 642 -31 q 631 -107 642 -71 q 601 -171 621 -143 q 559 -217 582 -199 q 514 -247 536 -236 q 435 -274 468 -271 q 396 -276 403 -276 l 246 -276 l 244 -276 q 169 -266 204 -276 q 106 -236 133 -256 q 59 -194 78 -217 q 29 -149 40 -171 q 3 -70 7 -103 q 0 -31 0 -37 l 0 865 q 39 1006 0 947 q 82 1052 58 1033 q 128 1082 106 1071 q 206 1108 174 1106 q 246 1111 239 1111 l 396 1111 q 535 1072 476 1111 q 583 1029 564 1053 q 613 983 601 1006 q 638 905 635 938 q 642 865 640 872 l 474 865 l 449 864 l 449 868 q 447 875 447 871 q 444 885 447 879 q 428 911 439 904 q 418 916 425 914 q 396 918 411 918 l 247 918 l 243 918 q 236 917 240 917 q 226 914 232 917 q 200 899 207 908 q 195 888 197 894 q 193 865 193 881 l 193 -29 l 193 -33 q 194 -40 194 -36 q 197 -50 194 -44 q 213 -76 203 -69 q 224 -81 217 -79 q 246 -83 231 -83 l 394 -83 l 399 -83 q 406 -82 401 -82 q 415 -79 410 -82 q 442 -64 435 -74 z "},"d":{"ha":681,"x_min":0,"x_max":642,"o":"m 449 864 l 449 868 q 447 875 447 871 q 444 885 447 879 q 428 911 439 904 q 418 916 425 914 q 396 918 411 918 l 193 918 l 193 -83 l 394 -83 l 399 -83 q 415 -79 404 -83 q 442 -64 435 -74 q 447 -53 444 -60 q 449 -31 449 -46 l 449 472 l 449 864 m 613 983 q 638 905 635 938 q 642 865 642 872 l 642 -31 q 631 -107 642 -71 q 601 -171 621 -143 q 559 -217 582 -199 q 514 -247 536 -236 q 435 -274 468 -271 q 396 -276 403 -276 l 0 -276 l 0 1015 l 0 1111 l 96 1111 l 396 1111 q 535 1072 476 1111 q 583 1029 564 1053 q 613 983 601 1006 z "},"e":{"ha":642,"x_min":0,"x_max":642,"o":"m 642 -31 q 631 -107 642 -71 q 601 -171 621 -143 q 559 -217 582 -199 q 514 -247 536 -236 q 435 -274 468 -271 q 396 -276 403 -276 l 246 -276 l 244 -276 q 169 -266 204 -276 q 106 -236 133 -256 q 59 -194 78 -217 q 29 -149 40 -171 q 3 -70 7 -103 q 0 -31 0 -37 l 0 1111 l 544 1111 l 544 918 l 193 918 l 193 807 q 246 813 215 813 l 396 813 l 396 619 l 246 619 q 224 617 231 619 q 214 613 217 615 q 203 600 208 608 q 196 582 199 593 q 193 567 193 571 l 193 565 l 193 -29 l 193 -33 q 194 -40 194 -36 q 197 -50 194 -44 q 213 -76 203 -69 q 224 -81 217 -79 q 246 -83 231 -83 l 394 -83 l 399 -83 q 406 -82 401 -82 q 415 -79 410 -82 q 442 -64 435 -74 q 447 -53 444 -60 q 449 -31 449 -46 l 642 -31 z "},"f":{"ha":544,"x_min":0,"x_max":544,"o":"m 200 899 q 195 888 197 894 q 193 865 193 881 l 193 807 q 246 813 215 813 l 396 813 l 396 619 l 246 619 q 224 617 231 619 q 214 613 217 615 q 203 600 208 608 q 196 582 199 593 q 193 567 193 571 l 193 -276 l 0 -276 l 0 567 l 0 865 q 10 942 0 906 q 40 1006 21 978 q 83 1052 60 1033 q 128 1082 106 1071 q 206 1108 174 1106 q 246 1111 239 1111 l 544 1111 l 544 918 l 247 918 l 243 918 q 226 914 236 918 q 200 899 207 908 z "},"g":{"ha":674,"x_min":0,"x_max":642,"o":"m 642 813 l 642 715 l 642 -31 q 631 -107 642 -71 q 601 -171 621 -143 q 559 -217 582 -199 q 514 -247 536 -236 q 435 -274 468 -271 q 396 -276 403 -276 l 0 -276 l 0 -181 l 0 865 q 10 942 0 906 q 40 1006 21 978 q 83 1052 60 1033 q 128 1082 106 1071 q 206 1108 174 1106 q 246 1111 239 1111 l 544 1111 l 544 918 l 247 918 l 243 918 q 236 917 240 917 q 226 914 232 917 q 200 899 207 908 q 195 888 197 894 q 193 865 193 881 l 193 -83 l 394 -83 l 399 -83 q 406 -82 401 -82 q 415 -79 410 -82 q 442 -64 435 -74 q 447 -53 444 -60 q 449 -31 449 -46 l 449 619 l 246 619 l 246 813 l 642 813 z "},"h":{"ha":683,"x_min":0,"x_max":642,"o":"m 642 1111 l 642 -276 l 449 -276 l 449 625 q 413 620 426 621 q 396 619 399 619 l 246 619 q 224 617 231 619 q 214 613 217 615 q 203 600 208 608 q 195 582 197 593 q 193 567 193 571 l 193 -276 l 0 -276 l 0 567 l 0 568 l 0 1111 l 193 1111 l 193 807 q 246 813 215 813 l 394 813 l 399 813 q 415 817 404 813 q 442 832 433 821 q 447 842 444 835 q 449 865 449 849 l 449 1111 l 642 1111 z "},"i":{"ha":235,"x_min":0,"x_max":193,"o":"m 193 1111 l 193 -276 l 0 -276 l 0 1111 l 193 1111 z "},"j":{"ha":683,"x_min":0,"x_max":642,"o":"m 642 1111 l 642 -276 l 396 -276 l 246 -276 l 244 -276 q 169 -266 204 -276 q 106 -237 133 -256 q 59 -194 78 -218 q 29 -149 40 -171 q 3 -70 7 -103 q 0 -31 0 -37 l 168 -31 l 193 -29 l 193 -33 q 194 -40 194 -36 q 197 -50 194 -44 q 213 -76 203 -69 q 224 -81 217 -79 q 246 -83 231 -83 l 396 -83 l 449 -83 l 449 1111 l 642 1111 z "},"k":{"ha":585,"x_min":0,"x_max":544,"o":"m 536 -82 q 538 -83 536 -83 l 544 -83 l 544 -276 l 543 -276 q 478 -267 510 -276 q 424 -239 447 -257 q 384 -201 400 -222 q 360 -161 368 -181 q 338 -94 340 -121 q 336 -60 336 -67 l 336 536 q 335 541 336 539 q 335 546 335 543 q 329 558 332 556 l 326 558 q 324 559 325 558 q 321 560 324 560 l 210 560 q 207 559 208 560 q 203 558 206 558 q 199 557 200 558 l 196 554 q 194 551 194 554 q 193 538 193 549 l 193 -276 l 0 -276 l 0 1111 l 193 1111 l 193 751 q 202 753 199 753 q 208 753 206 753 l 321 753 l 329 753 q 335 769 333 760 q 336 776 336 772 l 336 894 q 338 917 336 900 q 346 958 339 933 q 370 1015 353 983 q 424 1075 388 1047 q 480 1101 449 1092 q 544 1111 511 1111 l 544 918 q 536 917 536 918 q 531 901 533 914 q 529 894 529 899 l 529 775 q 528 754 529 771 q 519 711 526 738 q 511 685 517 700 q 496 656 506 671 q 501 647 499 651 q 506 638 503 642 q 526 570 524 597 q 529 536 529 543 l 529 -60 q 530 -64 529 -61 q 531 -69 531 -67 q 536 -82 533 -79 z "},"l":{"ha":642,"x_min":0,"x_max":642,"o":"m 642 -31 q 631 -107 642 -71 q 601 -171 621 -143 q 559 -217 582 -199 q 514 -247 536 -236 q 435 -274 468 -271 q 396 -276 403 -276 l 0 -276 l 0 1111 l 193 1111 l 193 -83 l 394 -83 l 399 -83 q 406 -82 401 -82 q 415 -79 410 -82 q 442 -64 435 -74 q 447 -53 444 -60 q 449 -31 449 -46 l 642 -31 z "},"m":{"ha":1132,"x_min":0,"x_max":1089,"o":"m 1089 1111 l 1089 -276 l 897 -276 l 897 918 l 794 918 l 790 918 l 778 918 q 757 916 768 917 q 732 913 746 915 q 681 898 706 907 q 649 881 656 889 q 642 873 642 874 q 642 865 642 872 l 642 -276 l 449 -276 l 449 865 q 447 873 447 872 q 443 879 447 874 q 401 901 432 890 q 336 915 369 913 q 297 918 303 918 l 296 918 l 193 918 l 193 -276 l 0 -276 l 0 1111 l 296 1111 q 325 1110 299 1111 q 392 1101 351 1108 q 465 1083 425 1094 q 544 1043 504 1071 q 593 1071 568 1060 q 642 1089 618 1082 q 746 1109 701 1107 q 794 1111 790 1111 l 1089 1111 z "},"n":{"ha":681,"x_min":0,"x_max":642,"o":"m 642 -276 l 449 -276 l 449 865 q 447 873 447 872 q 443 879 447 874 q 401 901 432 890 q 337 915 369 913 q 297 918 304 918 l 296 918 l 193 918 l 193 -276 l 0 -276 l 0 1111 l 296 1111 q 325 1110 299 1111 q 392 1101 351 1108 q 479 1078 432 1094 q 571 1024 526 1063 l 579 1015 l 642 1015 l 642 865 l 642 685 l 642 -276 z "},"o":{"ha":681,"x_min":0,"x_max":642,"o":"m 449 865 q 447 888 449 881 q 442 897 444 894 q 429 908 438 903 q 410 916 422 914 q 396 918 399 918 l 394 918 l 193 918 l 193 865 l 193 -29 l 193 -33 q 194 -40 194 -36 q 197 -50 194 -44 q 213 -76 203 -69 q 224 -81 217 -79 q 246 -83 231 -83 l 394 -83 l 399 -83 q 406 -82 401 -82 q 415 -79 410 -82 q 442 -64 435 -74 q 447 -53 444 -60 q 449 -31 449 -46 l 449 472 l 449 865 m 642 -31 q 631 -107 642 -71 q 601 -171 621 -143 q 559 -217 582 -199 q 514 -247 536 -236 q 435 -274 468 -271 q 396 -276 403 -276 l 246 -276 l 244 -276 q 169 -266 204 -276 q 106 -236 133 -256 q 59 -194 78 -217 q 29 -149 40 -171 q 3 -70 7 -103 q 0 -31 0 -37 l 0 865 l 0 1015 l 0 1111 l 396 1111 q 420 1110 400 1111 q 471 1099 440 1108 q 537 1069 500 1090 q 601 1006 574 1049 q 631 942 621 978 q 642 865 642 906 l 642 -31 z "},"p":{"ha":642,"x_min":0,"x_max":642,"o":"m 449 865 q 447 888 449 881 q 442 897 444 894 q 429 908 438 903 q 410 916 422 914 q 394 918 397 918 l 193 918 l 193 813 l 449 813 l 449 865 m 601 1006 q 631 942 621 978 q 642 865 642 906 l 642 715 l 642 619 l 193 619 l 193 -276 l 0 -276 l 0 1111 l 396 1111 q 420 1110 400 1111 q 471 1099 440 1108 q 537 1069 500 1090 q 601 1006 574 1049 z "},"q":{"ha":679,"x_min":0,"x_max":642,"o":"m 449 8 l 449 865 q 447 888 449 881 q 442 897 444 894 q 429 908 438 903 q 411 915 422 913 q 396 918 400 918 l 246 918 q 224 916 231 918 q 214 911 217 914 q 203 899 208 907 q 196 881 199 892 q 193 865 193 869 l 193 864 l 193 -31 q 195 -53 193 -46 q 200 -62 197 -60 q 213 -74 204 -68 q 231 -81 219 -78 q 246 -83 242 -83 l 304 -83 q 300 -58 301 -71 q 299 -31 299 -44 l 408 -31 l 449 8 m 601 1006 q 631 942 621 978 q 642 865 642 906 l 642 -31 l 642 -71 l 544 -167 l 544 -276 q 520 -275 540 -276 q 469 -264 500 -274 q 462 -262 467 -262 q 453 -258 457 -261 l 436 -276 l 396 -276 l 246 -276 q 222 -275 242 -276 q 171 -264 201 -274 q 105 -235 142 -256 q 40 -171 68 -214 q 10 -107 21 -143 q 0 -31 0 -71 l 0 472 l 0 865 q 1 890 0 869 q 13 940 3 910 q 42 1006 21 969 q 106 1072 63 1043 q 246 1111 164 1111 l 396 1111 q 420 1110 400 1111 q 471 1099 440 1108 q 537 1069 500 1090 q 601 1006 574 1049 z "},"r":{"ha":674,"x_min":0,"x_max":642,"o":"m 201 858 q 231 839 208 851 q 303 819 254 826 q 299 865 299 840 q 297 888 299 881 q 292 897 294 894 q 281 908 290 901 q 260 916 272 914 q 246 918 249 918 l 244 918 l 193 918 l 193 872 q 201 858 193 868 m 642 -276 l 449 -276 l 449 565 l 449 569 q 444 586 446 575 q 428 613 439 606 q 418 617 425 615 q 396 619 411 619 q 193 647 276 619 l 193 -276 l 0 -276 l 0 1111 l 246 1111 q 270 1110 250 1111 q 321 1099 290 1108 q 387 1069 350 1090 q 453 1006 424 1049 q 481 942 472 978 q 492 865 490 906 q 497 833 492 842 q 515 808 501 825 q 553 769 528 792 q 604 704 579 746 q 631 642 621 676 q 642 567 642 607 l 642 -276 z "},"s":{"ha":650,"x_min":0,"x_max":642,"o":"m 615 79 q 634 26 626 51 q 642 -31 642 0 q 631 -107 642 -71 q 601 -171 621 -143 q 559 -217 582 -199 q 514 -247 536 -236 q 435 -274 468 -271 q 396 -276 403 -276 l 246 -276 l 244 -276 q 169 -266 204 -276 q 106 -236 133 -256 q 59 -194 78 -217 q 29 -149 40 -171 q 3 -70 7 -103 q 0 -31 0 -37 l 168 -31 l 193 -29 l 193 -33 q 194 -40 194 -36 q 197 -50 194 -44 q 213 -76 203 -69 q 224 -81 217 -79 q 246 -83 231 -83 l 394 -83 l 399 -83 q 406 -82 401 -82 q 415 -79 410 -82 q 442 -64 435 -74 q 447 -53 444 -60 q 449 -31 449 -46 q 448 -28 449 -29 q 447 -24 447 -26 q 439 0 444 -14 q 404 78 428 29 q 348 181 381 125 q 279 297 315 236 q 206 420 243 358 q 135 540 169 482 q 73 653 101 599 q 26 754 44 708 q 8 808 15 782 q 0 865 0 833 q 10 942 0 906 q 40 1006 21 978 q 83 1052 60 1033 q 128 1082 106 1071 q 206 1108 174 1106 q 246 1111 239 1111 l 396 1111 l 544 1111 l 544 918 l 396 918 l 247 918 l 243 918 q 236 917 240 917 q 226 914 232 917 q 200 899 207 908 q 195 888 197 894 q 193 865 193 881 q 194 858 193 861 q 197 848 196 854 q 201 835 199 842 q 238 756 215 800 q 294 653 261 708 q 363 536 326 597 q 435 413 399 475 q 506 293 472 351 q 569 180 540 235 q 615 79 597 125 z "},"t":{"ha":472,"x_min":0,"x_max":449,"o":"m 449 1111 l 449 918 l 321 918 l 321 -276 l 128 -276 l 128 918 l 0 918 l 0 1111 l 449 1111 z "},"u":{"ha":683,"x_min":0,"x_max":642,"o":"m 642 1111 l 642 596 l 642 -31 q 631 -107 642 -71 q 601 -171 621 -143 q 559 -217 582 -199 q 514 -247 536 -236 q 435 -274 468 -271 q 396 -276 403 -276 l 96 -276 l 0 -276 l 0 -31 l 0 1111 l 193 1111 l 193 -31 l 193 -83 l 394 -83 l 399 -83 q 406 -82 401 -82 q 415 -79 410 -82 q 442 -64 435 -74 q 447 -53 444 -60 q 449 -31 449 -46 l 449 1111 l 642 1111 z "},"v":{"ha":672,"x_min":0,"x_max":642,"o":"m 642 1111 l 642 156 q 632 96 642 124 q 607 46 622 68 q 574 6 592 24 q 538 -28 557 -11 q 453 -86 499 -60 q 364 -135 408 -112 q 277 -175 319 -157 q 201 -206 235 -193 q 148 -226 168 -219 q 128 -233 128 -233 l 0 -276 l 0 1111 l 193 1111 l 193 -1 q 298 47 243 18 q 393 104 353 75 q 432 138 418 122 q 449 158 446 153 l 449 1111 l 642 1111 z "},"w":{"ha":1133,"x_min":0,"x_max":1090,"o":"m 1090 1111 l 1090 -276 l 964 -233 q 928 -222 963 -233 q 844 -189 894 -210 q 732 -138 793 -168 q 615 -72 671 -108 q 578 -47 596 -60 q 546 -19 561 -35 l 538 -28 q 453 -86 499 -60 q 364 -135 408 -112 q 277 -175 319 -157 q 201 -206 235 -193 q 148 -226 168 -219 q 128 -233 128 -233 l 0 -276 l 0 1111 l 193 1111 l 193 -1 q 298 47 243 18 q 393 104 353 75 q 432 138 418 122 q 449 158 446 153 l 449 1076 l 449 1111 l 642 1111 l 642 1076 l 642 244 l 642 158 q 643 156 642 158 q 651 144 646 151 q 667 129 657 138 q 713 94 685 113 q 775 57 742 75 q 837 25 806 40 q 897 -1 868 10 l 897 1111 l 1090 1111 z "},"x":{"ha":683,"x_min":0,"x_max":642,"o":"m 601 803 q 631 739 621 775 q 642 663 642 703 l 642 -276 l 449 -276 l 449 663 q 447 685 449 678 q 442 694 444 692 q 429 706 436 703 q 411 713 422 711 q 396 715 400 715 l 322 715 l 247 715 l 243 715 q 226 713 240 715 q 200 696 208 707 q 195 686 197 693 q 193 663 193 679 l 193 -276 l 0 -276 l 0 663 q 39 803 0 744 q 43 808 42 806 q 47 814 44 811 q 37 828 42 821 q 29 844 32 836 q 3 922 7 889 q 0 961 0 956 l 0 1111 l 193 1111 l 193 963 l 193 958 q 197 942 193 951 q 213 915 204 922 q 224 910 217 913 q 246 908 231 908 l 396 908 q 418 910 411 908 q 428 915 425 913 q 439 928 433 919 q 445 947 443 935 q 449 961 447 958 l 449 964 l 449 1111 l 642 1111 l 642 961 q 640 937 642 957 q 629 886 639 917 q 616 851 624 871 q 594 813 608 832 q 597 808 596 810 q 601 803 599 806 z "},"y":{"ha":651,"x_min":0,"x_max":640,"o":"m 640 1110 q 640 1088 640 1107 q 633 1042 640 1069 q 612 979 626 1014 q 561 913 597 944 q 503 877 538 890 q 432 865 469 864 l 431 865 l 431 864 q 426 856 428 861 q 419 832 421 846 q 417 813 417 818 l 417 811 l 417 -276 l 224 -276 l 224 811 l 224 817 q 223 824 224 819 q 221 836 222 829 q 215 854 218 846 q 210 865 213 863 l 208 865 q 137 877 171 864 q 79 913 103 890 q 42 958 56 935 q 19 1001 28 981 q 2 1075 4 1044 q 0 1110 0 1106 l 189 1110 l 193 1111 l 193 1106 q 196 1086 193 1100 q 201 1068 199 1076 q 207 1057 204 1060 l 208 1057 q 269 1049 240 1058 q 321 1024 297 1039 q 373 1049 344 1039 q 432 1057 401 1058 l 435 1057 l 435 1058 q 439 1067 436 1060 q 447 1092 444 1078 q 449 1110 449 1107 l 449 1111 l 478 1110 l 640 1110 z "},"z":{"ha":738,"x_min":0,"x_max":726,"o":"m 485 -64 q 490 -53 488 -60 q 492 -31 492 -46 l 685 -31 q 674 -107 685 -71 q 644 -171 664 -143 q 602 -217 625 -199 q 556 -247 579 -236 q 513 -265 533 -258 q 477 -274 493 -271 q 451 -276 461 -276 q 439 -276 442 -276 l 0 -276 l 449 918 l 289 918 q 267 916 274 918 q 257 911 260 914 q 246 899 251 907 q 238 881 240 892 q 236 865 236 869 l 236 864 l 190 865 l 43 865 q 44 890 43 869 q 54 940 46 910 q 85 1006 64 969 q 149 1072 106 1043 q 289 1111 207 1111 l 588 1111 l 726 1111 l 278 -83 l 438 -83 l 442 -83 q 449 -82 444 -82 q 458 -79 453 -82 q 485 -64 478 -72 z "}}}
